<?xml version="1.0" encoding="UTF-8" standalone="no"?>
<svg
   width="114.32642mm"
   height="31.183069mm"
   viewBox="0 0 142.90801 38.978837"
   version="1.1"
   id="svg1"
   xmlns="http://www.w3.org/2000/svg"
   xmlns:svg="http://www.w3.org/2000/svg">
<defs>
    <style><![CDATA[
:root {
  --icon-fill-light: #1a1a1a;  
  --icon-fill-dark: #a1d18a; 
  --icon-stroke: none;
}

@media (prefers-color-scheme: dark) {
  :root {
    --icon-fill: var(--icon-fill-dark);
  }
}

@media (prefers-color-scheme: light) {
  :root {
    --icon-fill: var(--icon-fill-light);
  }
}

svg {
  background: transparent;  /* Fondo siempre transparente */
}

.fill { 
  fill: var(--icon-fill, #1a1a1a); 
  stroke: var(--icon-stroke); 
}
    ]]></style>
  </defs>

  <g
     id="layer1"
     transform="translate(-40.609333,-70.232481)">
    <path
       class="fill"
       id="path103047" 
       d="m 58.378657,108.94186 c -0.956976,-0.31049 -2.351876,-1.39899 -4.233021,-3.30326 -1.790219,-1.81222 -1.790219,-1.81222 -2.800045,-1.29196 -3.118625,1.60668 -6.710892,-1.10581 -6.177294,-4.664438 0.223822,-1.4927 0.154013,-1.40961 6.810348,-8.104641 6.217498,-6.253632 6.217498,-6.253632 4.959733,-7.498273 -1.257766,-1.244642 -1.257766,-1.244642 -4.781384,2.211774 -3.523617,3.456417 -3.523617,3.456417 -2.89967,4.107677 0.623948,0.65126 0.623948,0.65126 -0.215612,1.511049 -1.04398,1.069132 -0.88705,1.094458 -2.335096,-0.376837 -1.994369,-2.02639 -2.077862,-1.913824 10.231825,-13.794501 3.498915,-3.376973 2.824948,-3.499538 7.928702,1.441879 4.19275,4.059391 4.19275,4.059391 4.903387,3.389101 0.710637,-0.670292 0.710637,-0.670292 -3.516148,-4.840614 -5.808268,-5.730682 -6.16618,-5.842456 -9.228278,-2.881906 -1.64244,1.58797 -1.577778,1.577095 -2.60652,0.438399 -0.812539,-0.899381 -0.812539,-0.899381 0.890337,-2.536468 3.461188,-3.32747 6.332371,-3.353317 9.672233,-0.08707 3.047034,2.979874 3.030406,2.969196 3.842155,2.46751 3.409839,-2.107398 7.651388,1.857939 6.060391,5.665732 -0.339175,0.811763 -5.59738,6.232613 -5.931899,6.115383 -0.100436,-0.03519 -2.062492,-1.929792 -4.360125,-4.210214 -4.802566,-4.76659 -4.24792,-4.481631 -5.754256,-2.956347 -1.175093,1.189872 -1.175093,1.189872 0.861762,3.209372 1.120267,1.110724 2.072713,2.127082 2.116542,2.258572 0.04383,0.131491 -1.865506,2.200791 -4.242968,4.598445 -4.322658,4.359373 -4.322658,4.359373 -0.936618,7.751738 1.862321,1.86579 3.438814,3.392358 3.503314,3.392358 0.192022,0 6.888321,-6.644638 6.882945,-6.829844 -0.0027,-0.09365 -0.517715,-0.674512 -1.144436,-1.29081 -1.26855,-1.247453 -0.641691,-1.604896 -5.714991,3.258766 -1.331698,1.27667 -1.331698,1.27667 -2.187589,0.44091 -1.088835,-1.063223 -1.290565,-0.6607 1.971003,-3.932823 2.826896,-2.836041 2.826896,-2.836041 2.137251,-3.621503 -0.689645,-0.785462 -0.689645,-0.785462 0.0154,-1.512883 1.009153,-1.041185 1.087563,-1.003849 4.15008,1.976114 3.119996,3.035894 2.621224,2.928278 4.6115,0.994992 0.738059,-0.716924 0.738059,-0.716924 0.175496,-1.304112 -0.733483,-0.765591 -0.718037,-0.862849 0.293982,-1.851061 0.856548,-0.836395 0.856548,-0.836395 2.153882,0.493556 1.617573,1.65824 1.641044,2.00089 0.241305,3.522725 -1.673856,1.819864 -12.679457,12.734363 -13.049435,12.941413 -0.666053,0.37273 -1.362681,-0.16436 -5.332302,-4.11113 -4.037517,-4.014268 -4.037517,-4.014268 -4.738537,-3.310918 -0.701018,0.70332 -0.701018,0.70332 3.714438,5.087008 6.004181,5.96097 5.682191,5.93238 10.707787,0.95034 8.001691,-7.932387 11.674292,-11.768455 11.819019,-12.345087 0.233329,-0.929658 -0.484484,-2.791033 -1.403121,-3.638454 -1.926663,-1.777304 -1.920264,-1.759568 -0.981757,-2.720685 1.084672,-1.110806 1.078781,-1.112128 2.703938,0.607407 3.600252,3.80933 3.424514,6.350758 -0.732565,10.593908 -2.117857,2.161713 -2.117857,2.161713 -1.634153,3.160903 1.825112,3.770188 -2.137568,7.689348 -5.917767,5.852768 -0.958084,-0.46547 -0.958084,-0.46547 -2.98259,1.52161 -3.028762,2.97277 -5.135255,3.82832 -7.520579,3.05443 z m -8.033102,-7.43929 c 1.338073,-1.33805 -0.42679,-3.214298 -1.919236,-2.040328 -0.762568,0.599828 -0.762568,1.522768 0,2.122608 0.745278,0.58624 1.273366,0.56361 1.919236,-0.0823 z m 21.49997,0.0823 c 1.029699,-0.80997 0.382376,-2.569018 -0.945383,-2.569018 -0.690733,0 -1.35894,0.74137 -1.35894,1.507708 0,1.31439 1.250435,1.89029 2.304323,1.06131 z m 0.173629,-21.664249 c 0.580492,-0.525339 0.499588,-1.504637 -0.176033,-2.130783 -0.740955,-0.686692 -1.04846,-0.666047 -1.837904,0.1234 -1.36883,1.368827 0.576721,3.308046 2.013937,2.007383 z M 43.167415,94.620535 c -3.546666,-3.733718 -3.426857,-6.221065 0.493727,-10.250292 2.410956,-2.477767 2.410956,-2.477767 1.969772,-3.2161 -2.734649,-4.576501 3.269407,-8.549786 7.343354,-4.85959 1.48613,1.346141 1.811329,0.811498 -3.921378,6.446949 -6.717267,6.603302 -6.833943,6.907852 -3.879598,10.126666 1.402281,1.52781 1.402943,1.532622 0.351988,2.558851 -0.825806,0.806373 -0.825806,0.806373 -2.357865,-0.806484 z m 7.17026,-14.641314 c 0.273621,-0.200076 0.407327,-0.561868 0.407327,-1.102178 0,-1.345116 -1.60481,-1.950012 -2.484007,-0.93629 -1.189463,1.371463 0.594305,3.122408 2.07668,2.038468 z"
      />
    <path
       class="fill"
       id="text1"
       aria-label="TAOWEI" 
        d="M 96.31337,78.428017 V 101.00028 H 94.546036 V 78.428017 Z m 6.41821,0 V 80.08683 H 88.143326 v -1.658813 z m 8.79016,1.364257 -6.51123,21.208006 h -1.82934 l 7.17785,-22.572263 h 1.25574 z m 5.82911,21.208006 -6.51124,-21.208006 -0.0775,-1.364257 h 1.24023 l 7.19336,22.572263 z m -1.0077,-7.984007 v 1.674317 h -10.18542 v -1.674317 z m 20.04529,-5.736083 v 4.883422 q 0,2.232422 -0.51159,3.953247 -0.4961,1.705323 -1.44178,2.868042 -0.94567,1.147219 -2.29443,1.751829 -1.34875,0.58911 -3.03857,0.58911 -1.65882,0 -3.00757,-0.58911 -1.34876,-0.60461 -2.30994,-1.751829 -0.96118,-1.162719 -1.48828,-2.868042 -0.5116,-1.720825 -0.5116,-3.953247 V 87.28019 q 0,-2.232422 0.5116,-3.953248 0.5116,-1.720825 1.45728,-2.868042 0.96118,-1.147216 2.30993,-1.736328 1.34876,-0.604614 3.00757,-0.604614 1.70532,0 3.05408,0.604614 1.34875,0.589112 2.29443,1.736328 0.96118,1.147217 1.45728,2.868042 0.51159,1.720826 0.51159,3.953248 z m -1.76733,4.883422 v -4.914428 q 0,-1.860352 -0.37207,-3.240113 -0.35657,-1.395263 -1.0542,-2.325439 -0.69763,-0.930176 -1.73633,-1.395264 -1.03869,-0.465088 -2.38745,-0.465088 -1.30225,0 -2.34094,0.465088 -1.0232,0.465088 -1.73633,1.395264 -0.69763,0.930176 -1.0697,2.325439 -0.37207,1.379761 -0.37207,3.240113 v 4.914428 q 0,1.860352 0.37207,3.255616 0.38757,1.37976 1.10071,2.325439 0.71313,0.930176 1.73632,1.395264 1.0387,0.465088 2.34095,0.465088 1.34875,0 2.37194,-0.465088 1.0387,-0.465088 1.73633,-1.395264 0.69763,-0.945679 1.0542,-2.325439 0.35657,-1.395264 0.35657,-3.255616 z m 11.34814,2.837036 4.04627,-16.572631 h 1.39526 l -1.03869,4.960937 -4.32532,17.611326 h -1.34876 z m -4.60437,-16.572631 3.37964,16.417602 1.00769,6.154661 h -1.39526 l -4.79041,-22.572263 z m 15.45642,16.402099 3.33313,-16.402099 h 1.79834 l -4.7904,22.572263 h -1.39526 z m -5.23999,-16.402099 3.98426,16.572631 1.25573,5.999632 h -1.34875 l -4.2168,-17.611326 -1.0542,-4.960937 z m 25.85889,20.913452 v 1.658811 H 166.89821 V 99.341469 Z M 167.3943,78.428017 v 22.572263 h -1.78283 V 78.428017 Z m 8.72815,10.092407 v 1.674316 h -9.22424 v -1.674316 z m 1.24024,-10.092407 v 1.658813 h -10.46448 v -1.658813 z m 6.15466,0 v 22.572263 h -1.79834 V 78.428017 Z"
      />
  </g>
</svg>
